<svg width="640" height="400" viewBox="0 0 640 400" xmlns="http://www.w3.org/2000/svg" role="img" aria-labelledby="title desc">
  <title id="title">Steel mezzanine floor and staircase in a light industrial workshop</title>
  <desc id="desc">Abstract illustration of an industrial steel mezzanine platform and staircase on a dark blue background.</desc>
  <defs>
    <linearGradient id="bg" x1="0" y1="0" x2="1" y2="1">
      <stop offset="0" stop-color="#0b1220"/>
      <stop offset="1" stop-color="#020617"/>
    </linearGradient>
    <linearGradient id="steel" x1="0" y1="0" x2="1" y2="1">
      <stop offset="0" stop-color="#cbd5f5"/>
      <stop offset="1" stop-color="#64748b"/>
    </linearGradient>
  </defs>
  <rect width="640" height="400" fill="url(#bg)"/>
  <rect x="60" y="160" width="520" height="18" fill="url(#steel)" opacity="0.95"/>
  <rect x="90" y="178" width="10" height="120" fill="#475569"/>
  <rect x="200" y="178" width="10" height="120" fill="#475569"/>
  <rect x="310" y="178" width="10" height="120" fill="#475569"/>
  <rect x="420" y="178" width="10" height="120" fill="#475569"/>
  <rect x="530" y="178" width="10" height="120" fill="#475569"/>
  <polygon points="120,178 250,320 270,320 140,178" fill="#94a3b8" opacity="0.9"/>
  <rect x="245" y="178" width="6" height="142" fill="#64748b"/>
  <rect x="80" y="195" width="480" height="4" fill="#94a3b8" opacity="0.6"/>
  <rect x="80" y="215" width="480" height="3" fill="#64748b" opacity="0.7"/>
  <rect x="80" y="235" width="480" height="3" fill="#64748b" opacity="0.5"/>
  <rect x="80" y="255" width="480" height="3" fill="#64748b" opacity="0.4"/>
  <rect x="0" y="330" width="640" height="40" fill="#020617" opacity="0.9"/>
</svg>

