<svg width="640" height="400" viewBox="0 0 640 400" xmlns="http://www.w3.org/2000/svg" role="img" aria-labelledby="title desc">
  <title id="title">Steel security gate and railings at a riverside property</title>
  <desc id="desc">Abstract illustration of a steel gate and railings with a river and horizon in the background.</desc>
  <defs>
    <linearGradient id="sky" x1="0" y1="0" x2="0" y2="1">
      <stop offset="0" stop-color="#0f172a"/>
      <stop offset="1" stop-color="#020617"/>
    </linearGradient>
    <linearGradient id="water" x1="0" y1="0" x2="1" y2="0">
      <stop offset="0" stop-color="#1e293b"/>
      <stop offset="1" stop-color="#0f172a"/>
    </linearGradient>
  </defs>
  <rect width="640" height="260" fill="url(#sky)"/>
  <rect y="260" width="640" height="60" fill="url(#water)"/>
  <rect y="320" width="640" height="80" fill="#020617"/>
  <rect x="70" y="140" width="500" height="8" fill="#020617"/>
  <rect x="70" y="140" width="500" height="6" fill="#e5e7eb" opacity="0.9"/>
  <rect x="70" y="200" width="500" height="10" fill="#0f172a"/>
  <rect x="70" y="200" width="500" height="7" fill="#cbd5f5" opacity="0.8"/>
  <rect x="90" y="148" width="8" height="52" fill="#111827"/>
  <rect x="140" y="148" width="8" height="52" fill="#111827"/>
  <rect x="190" y="148" width="8" height="52" fill="#111827"/>
  <rect x="240" y="148" width="8" height="52" fill="#111827"/>
  <rect x="290" y="148" width="8" height="52" fill="#111827"/>
  <rect x="340" y="148" width="8" height="52" fill="#111827"/>
  <rect x="390" y="148" width="8" height="52" fill="#111827"/>
  <rect x="440" y="148" width="8" height="52" fill="#111827"/>
  <rect x="490" y="148" width="8" height="52" fill="#111827"/>
  <rect x="540" y="148" width="8" height="52" fill="#111827"/>
  <rect x="310" y="120" width="6" height="90" fill="#e5e7eb" opacity="0.9"/>
  <rect x="260" y="118" width="100" height="6" fill="#e5e7eb" opacity="0.85"/>
  <rect x="220" y="155" width="80" height="4" fill="#94a3b8"/>
  <rect x="340" y="155" width="80" height="4" fill="#94a3b8"/>
</svg>

